Coordinates
version=1
nRows=9
nColumns=41
inDegrees=yes

Units are S.I. units (second, meters, Newtons, ...)
If the header above contains a line with 'inDegrees', this indicates whether rotational values are in degrees (yes) or radians (no).

endheader
time	pelvis_tilt	pelvis_list	pelvis_rotation	pelvis_tx	pelvis_ty	pelvis_tz	hip_flexion_r	hip_adduction_r	hip_rotation_r	knee_angle_r	ankle_angle_r	subtalar_angle_r	mtp_angle_r	hip_flexion_l	hip_adduction_l	hip_rotation_l	knee_angle_l	ankle_angle_l	subtalar_angle_l	mtp_angle_l	L5_S1_Flex_Ext	L5_S1_Lat_Bending	L5_S1_axial_rotation	neck_flexion	neck_bending	neck_rotation	arm_flex_r	arm_add_r	arm_rot_r	elbow_flex_r	pro_sup_r	wrist_flex_r	wrist_dev_r	arm_flex_l	arm_add_l	arm_rot_l	elbow_flex_l	pro_sup_l	wrist_flex_l	wrist_dev_l
0.000000	5.828436	12.073743	-200.201927	-0.037758	0.884527	0.054578	38.899663	-7.385692	0.000000	0.000000	0.000000	0.000000	0.000000	19.158909	-5.470999	0.000000	6.888354	0.000000	0.000000	0.000000	-1.861471	-4.724428	28.248552	28.647890	29.050985	44.999991	-6.775278	-37.146284	55.417393	108.870811	110.906681	-4.163745	-16.235542	13.580348	-50.635690	118.040293	87.585554	112.114620	-77.497038	-25.000000
0.080000	5.646714	11.585216	-202.128628	-0.035310	0.875709	0.054910	40.798888	-10.269213	0.000000	0.000000	0.000000	0.000000	0.000000	20.685275	-5.857398	0.000000	10.859163	0.000000	0.000000	0.000000	-1.766760	-6.972600	29.120377	28.647890	34.427492	44.999991	-3.989180	-37.546010	58.281741	105.721147	108.992169	-5.178460	-19.141426	12.145856	-55.203780	109.188119	86.530171	119.748179	-81.717346	-25.000000
0.160000	5.899459	12.697037	-199.459743	-0.038618	0.864680	0.061632	39.937837	-14.362258	0.000000	0.000000	0.000000	0.000000	0.000000	24.296931	-6.804876	0.000000	21.429729	0.000000	0.000000	0.000000	-1.910836	-6.988257	25.495537	28.647890	36.601611	44.999991	-1.511792	-37.587849	61.098503	103.377367	109.436642	-7.878769	-21.854026	6.725267	-58.250976	92.592707	85.544823	119.748179	-45.845557	-25.000000
0.240000	6.434986	16.663828	-189.878557	-0.049923	0.849535	0.078491	33.667017	-19.263073	0.000000	0.000000	0.000000	0.000000	0.000000	27.921637	-10.739614	0.000000	40.597398	0.000000	0.000000	0.000000	-2.257010	-3.218534	15.376178	28.647890	32.828897	44.999991	-0.406607	-38.658744	62.805584	100.065005	108.527403	-8.130436	-24.036340	4.858097	-58.550780	85.285290	84.047289	119.748179	-31.269946	-25.000000
0.320000	6.171055	21.783582	-177.490694	-0.059163	0.828482	0.100708	24.122747	-21.669768	0.000000	0.000000	0.000000	0.000000	0.000000	30.195121	-14.472739	0.000000	58.349581	0.000000	0.000000	0.000000	-2.329108	2.184220	2.773905	28.647890	28.333727	44.999991	1.323098	-39.082664	65.558666	97.220644	107.638203	-9.712062	-24.393765	3.862236	-58.123829	81.478900	78.972114	119.748179	-29.520068	-25.000000
0.400000	5.783350	23.377130	-171.834970	-0.061905	0.805006	0.110705	19.201551	-22.020439	0.000000	0.000000	0.000000	0.000000	0.000000	31.756631	-16.604904	0.000000	70.775484	0.000000	0.000000	0.000000	-2.223082	3.565581	-2.767384	28.647890	29.034253	44.999991	2.338057	-38.402048	67.093181	91.562226	107.287859	-10.992393	-22.207336	4.560209	-57.244500	80.204151	74.791113	119.748179	-22.278292	-25.000000
0.480000	5.461655	24.021659	-168.139979	-0.062805	0.777455	0.117711	15.524590	-21.642741	0.000000	0.000000	0.000000	0.000000	0.000000	33.147504	-18.012784	0.000000	79.816879	0.000000	0.000000	0.000000	-2.105991	4.308045	-6.468731	28.647890	21.142486	44.999991	3.331172	-36.948189	69.238858	86.352565	106.404874	-11.964878	-21.398469	5.674177	-56.730679	81.341881	71.325132	119.748179	-24.076055	-25.000000
0.560000	5.141664	24.447542	-164.951247	-0.061971	0.745278	0.123963	12.417046	-20.872103	0.000000	0.000000	0.000000	0.000000	0.000000	34.588256	-19.004227	0.000000	86.626761	0.000000	0.000000	0.000000	-1.991142	5.429890	-9.653057	28.647890	21.127421	44.999991	3.828492	-35.605044	70.649591	82.156046	106.786312	-12.334163	-21.197420	6.184759	-55.170596	81.638796	67.316238	119.745375	-23.651779	-25.000000
0.640000	4.859475	24.775064	-162.372506	-0.059768	0.713814	0.130018	10.496041	-19.990919	0.000000	0.000000	0.000000	0.000000	0.000000	35.950486	-19.975025	0.000000	91.704031	0.000000	0.000000	0.000000	-1.889067	6.853652	-12.204234	28.647890	17.869401	44.999991	4.196582	-35.748248	71.659699	79.043898	108.028529	-14.662610	-22.043150	6.750737	-53.632651	81.973108	62.652507	116.385547	-20.866467	-25.000000
